# xmcd
#
# Track frame offsets:
# 182
# 11775
# 20335
# 43587
# 58442
# 75832
# 90022
# 102462
# 123900
# 140870
#
# Disc length: 2251 seconds
#
#
# Revision: 2
# Processed by: cddbd v1.5.1PL0 Copyright (c) Steve Scherf et al.
# Submitted via: FreeRIP 2.94 
#
DISCID=7a08c90a
DTITLE=Andre Cristovam - The 2120 Sessions
DYEAR=1991
DGENRE=Blues
TTITLE0=Lighthouse
TTITLE1=Spear dance
TTITLE2=Don't ever leave me
TTITLE3=Calliope
TTITLE4=Hard times killing floor
TTITLE5=Bad feeling
TTITLE6=Don't tell me
TTITLE7=Made up my mind
TTITLE8=Reverend of high sierras
TTITLE9=I've got a feeling
EXTD=
EXTT0=
EXTT1=
EXTT2=
EXTT3=
EXTT4=
EXTT5=
EXTT6=
EXTT7=
EXTT8=
EXTT9=
PLAYORDER=
